<svg xmlns="http://www.w3.org/2000/svg" width="472" height="144" fill="none"><path fill="#000" d="M230.917 113.811H159.17V8.151h18.049v89.358h53.698v16.302Z"/><path fill="#000" d="M228.02 144v-15.094h14.44c6.217 0 10.128-2.214 11.732-6.642l3.159-8.453h-3.309l-31.587-80h19.103l22.863 60.68 22.411-60.68h18.501l-34.745 93.736c-2.106 5.535-5.415 9.661-9.928 12.378-4.512 2.717-10.579 4.075-18.2 4.075h-14.44Zm83.803-30.189v-80h14.29l2.105 15.698c5.215-11.069 14.44-16.603 27.677-16.603h3.008v17.358h-3.008c-8.323 0-14.791 2.113-19.404 6.34-4.613 4.226-6.919 10.113-6.919 17.66v39.547h-17.749Zm63.118-90.717c-3.209 0-5.917-1.107-8.123-3.32-2.206-2.315-3.309-5.082-3.309-8.302 0-3.22 1.103-5.937 3.309-8.151C369.024 1.107 371.732 0 374.941 0c3.309 0 6.016 1.107 8.122 3.32 2.206 2.215 3.309 4.932 3.309 8.152 0 3.32-1.103 6.088-3.309 8.302-2.106 2.213-4.813 3.32-8.122 3.32Zm8.874 90.717h-17.749v-80h17.749v80Zm50.581 2.264c-8.423 0-15.743-1.861-21.96-5.584-6.217-3.724-10.98-8.805-14.289-15.246-3.309-6.54-4.964-13.886-4.964-22.038 0-8.553 1.755-15.95 5.265-22.188 3.509-6.34 8.373-11.17 14.59-14.49 6.217-3.422 13.186-5.133 20.907-5.133 7.22 0 13.588 1.409 19.103 4.227 5.615 2.717 10.027 6.59 13.236 11.622 3.309 5.032 5.215 10.868 5.716 17.51h-17.448c-.802-5.535-3.058-9.912-6.769-13.132-3.71-3.321-8.373-4.981-13.988-4.981-6.819 0-12.284 2.415-16.395 7.245-4.112 4.73-6.167 11.17-6.167 19.32 0 8.554 2.156 15.296 6.468 20.227 4.311 4.93 9.877 7.396 16.695 7.396 5.415 0 9.878-1.61 13.387-4.83 3.61-3.32 5.867-7.85 6.769-13.585H472c-1.103 10.365-5.014 18.566-11.732 24.604-6.719 6.038-15.343 9.056-25.872 9.056Zm-314.512-83.05c0 6.769-2.713 12.889-7.097 17.308a24.067 24.067 0 0 1-5.873 4.37c-2.809-10.38-12.194-18.006-23.359-18.006H36.328a23.884 23.884 0 0 0-11.25 2.803 24.778 24.778 0 0 1-.86-6.475c0-13.526 10.839-24.481 24.22-24.481h47.227c13.381 0 24.219 10.955 24.219 24.48Z"/><path fill="#000" d="M107.774 61.176c0 6.77-2.712 12.89-7.096 17.308a24.085 24.085 0 0 1-5.873 4.37c-2.81-10.38-12.194-18.005-23.36-18.005H24.22a23.884 23.884 0 0 0-11.25 2.803 24.782 24.782 0 0 1-.86-6.476c0-9.412 5.256-17.588 12.97-21.676 2.81 10.38 12.194 18.004 23.359 18.004h47.227a23.88 23.88 0 0 0 11.249-2.801c.557 2.056.86 4.233.86 6.473Z"/><path fill="#000" d="M95.665 89.33c0 6.768-2.713 12.889-7.097 17.307-4.383 4.431-10.438 7.173-17.122 7.173H24.219C10.838 113.81 0 102.855 0 89.33c0-9.413 5.255-17.59 12.97-21.678 2.809 10.38 12.193 18.005 23.358 18.005h47.227c4.057 0 7.896-1.016 11.25-2.803.557 2.057.86 4.235.86 6.475Z"/></svg>