<svg width="611" height="150" viewBox="0 0 611 150" fill="none" xmlns="http://www.w3.org/2000/svg">
<path d="M172.673 124.915H160.232V137.406H172.673V124.915Z" fill="black"/>
<path d="M172.673 112.423H160.232V124.915H172.673V112.423Z" fill="black"/>
<path d="M172.673 25.0852H160.232V37.5767H172.673V25.0852Z" fill="black"/>
<path d="M172.673 12.5938H160.232V25.0852H172.673V12.5938Z" fill="black"/>
<path d="M160.231 124.915H147.791V137.406H160.231V124.915Z" fill="black"/>
<path d="M160.231 112.423H147.791V124.915H160.231V112.423Z" fill="black"/>
<path d="M160.231 99.9316H147.791V112.423H160.231V99.9316Z" fill="black"/>
<path d="M160.231 50.0681H147.791V62.5596H160.231V50.0681Z" fill="black"/>
<path d="M160.231 37.5767H147.791V50.0681H160.231V37.5767Z" fill="black"/>
<path d="M160.231 25.0852H147.791V37.5767H160.231V25.0852Z" fill="black"/>
<path d="M160.231 12.5938H147.791V25.0852H160.231V12.5938Z" fill="black"/>
<path d="M147.792 99.9316H135.352V112.423H147.792V99.9316Z" fill="black"/>
<path d="M147.792 87.4402H135.352V99.9317H147.792V87.4402Z" fill="black"/>
<path d="M147.792 50.0681H135.352V62.5596H147.792V50.0681Z" fill="black"/>
<path d="M135.35 87.4402H122.91V99.9317H135.35V87.4402Z" fill="black"/>
<path d="M135.35 74.9487H122.91V87.4402H135.35V74.9487Z" fill="black"/>
<path d="M135.35 62.4573H122.91V74.9487H135.35V62.4573Z" fill="black"/>
<path d="M147.792 74.9487H135.352V87.4402H147.792V74.9487Z" fill="black"/>
<path d="M147.792 37.5767H135.352V50.0681H147.792V37.5767Z" fill="black"/>
<path d="M122.911 74.9487H110.471V87.4402H122.911V74.9487Z" fill="black"/>
<path d="M122.911 62.4573H110.471V74.9487H122.911V62.4573Z" fill="black"/>
<path d="M110.573 99.9316H98.1328V112.423H110.573V99.9316Z" fill="black"/>
<path d="M110.573 87.4402H98.1328V99.9317H110.573V87.4402Z" fill="black"/>
<path d="M110.573 74.9487H98.1328V87.4402H110.573V74.9487Z" fill="black"/>
<path d="M110.573 62.4573H98.1328V74.9487H110.573V62.4573Z" fill="black"/>
<path d="M110.573 50.0681H98.1328V62.5596H110.573V50.0681Z" fill="black"/>
<path d="M110.573 37.5767H98.1328V50.0681H110.573V37.5767Z" fill="black"/>
<path d="M98.1317 124.915H85.6914V137.406H98.1317V124.915Z" fill="black"/>
<path d="M98.1317 112.423H85.6914V124.915H98.1317V112.423Z" fill="black"/>
<path d="M98.1317 99.9316H85.6914V112.423H98.1317V99.9316Z" fill="black"/>
<path d="M98.1317 87.4402H85.6914V99.9317H98.1317V87.4402Z" fill="black"/>
<path d="M98.1317 50.0681H85.6914V62.5596H98.1317V50.0681Z" fill="black"/>
<path d="M98.1317 37.5767H85.6914V50.0681H98.1317V37.5767Z" fill="black"/>
<path d="M98.1317 25.0852H85.6914V37.5767H98.1317V25.0852Z" fill="black"/>
<path d="M98.1317 12.5938H85.6914V25.0852H98.1317V12.5938Z" fill="black"/>
<path d="M85.6922 124.915H73.252V137.406H85.6922V124.915Z" fill="black"/>
<path d="M85.6922 112.423H73.252V124.915H85.6922V112.423Z" fill="black"/>
<path d="M85.6922 37.5767H73.252V50.0681H85.6922V37.5767Z" fill="black"/>
<path d="M85.6922 25.0852H73.252V37.5767H85.6922V25.0852Z" fill="black"/>
<path d="M85.6922 12.5938H73.252V25.0852H85.6922V12.5938Z" fill="black"/>
<path d="M334.97 124.915H322.529V137.406H334.97V124.915Z" fill="black"/>
<path d="M334.97 112.423H322.529V124.915H334.97V112.423Z" fill="black"/>
<path d="M334.97 25.0852H322.529V37.5767H334.97V25.0852Z" fill="black"/>
<path d="M334.97 12.5938H322.529V25.0852H334.97V12.5938Z" fill="black"/>
<path d="M322.528 124.915H310.088V137.406H322.528V124.915Z" fill="black"/>
<path d="M322.528 112.423H310.088V124.915H322.528V112.423Z" fill="black"/>
<path d="M322.528 99.9316H310.088V112.423H322.528V99.9316Z" fill="black"/>
<path d="M322.528 37.5767H310.088V50.0681H322.528V37.5767Z" fill="black"/>
<path d="M322.528 25.0852H310.088V37.5767H322.528V25.0852Z" fill="black"/>
<path d="M322.528 12.5938H310.088V25.0852H322.528V12.5938Z" fill="black"/>
<path d="M310.089 112.423H297.648V124.915H310.089V112.423Z" fill="black"/>
<path d="M310.089 99.9316H297.648V112.423H310.089V99.9316Z" fill="black"/>
<path d="M310.089 87.4402H297.648V99.9317H310.089V87.4402Z" fill="black"/>
<path d="M310.089 50.0681H297.648V62.5596H310.089V50.0681Z" fill="black"/>
<path d="M310.089 37.5767H297.648V50.0681H310.089V37.5767Z" fill="black"/>
<path d="M310.089 25.0852H297.648V37.5767H310.089V25.0852Z" fill="black"/>
<path d="M297.647 99.9316H285.207V112.423H297.647V99.9316Z" fill="black"/>
<path d="M297.647 87.4402H285.207V99.9317H297.647V87.4402Z" fill="black"/>
<path d="M297.647 50.0681H285.207V62.5596H297.647V50.0681Z" fill="black"/>
<path d="M297.647 37.5767H285.207V50.0681H297.647V37.5767Z" fill="black"/>
<path d="M285.208 87.4402H272.768V99.9317H285.208V87.4402Z" fill="black"/>
<path d="M285.208 74.9487H272.768V87.4402H285.208V74.9487Z" fill="black"/>
<path d="M285.208 62.4573H272.768V74.9487H285.208V62.4573Z" fill="black"/>
<path d="M285.208 50.0681H272.768V62.5596H285.208V50.0681Z" fill="black"/>
<path d="M272.768 74.9487H260.328V87.4402H272.768V74.9487Z" fill="black"/>
<path d="M272.768 62.4573H260.328V74.9487H272.768V62.4573Z" fill="black"/>
<path d="M260.327 124.915H247.887V137.406H260.327V124.915Z" fill="black"/>
<path d="M260.327 112.423H247.887V124.915H260.327V112.423Z" fill="black"/>
<path d="M260.327 99.9316H247.887V112.423H260.327V99.9316Z" fill="black"/>
<path d="M260.327 87.4402H247.887V99.9317H260.327V87.4402Z" fill="black"/>
<path d="M260.327 74.9487H247.887V87.4402H260.327V74.9487Z" fill="black"/>
<path d="M260.327 62.4573H247.887V74.9487H260.327V62.4573Z" fill="black"/>
<path d="M260.327 50.0681H247.887V62.5596H260.327V50.0681Z" fill="black"/>
<path d="M260.327 37.5767H247.887V50.0681H260.327V37.5767Z" fill="black"/>
<path d="M260.327 25.0852H247.887V37.5767H260.327V25.0852Z" fill="black"/>
<path d="M260.327 12.5938H247.887V25.0852H260.327V12.5938Z" fill="black"/>
<path d="M247.989 124.915H235.549V137.406H247.989V124.915Z" fill="black"/>
<path d="M247.989 112.423H235.549V124.915H247.989V112.423Z" fill="black"/>
<path d="M247.989 99.9316H235.549V112.423H247.989V99.9316Z" fill="black"/>
<path d="M247.989 87.4402H235.549V99.9317H247.989V87.4402Z" fill="black"/>
<path d="M247.989 74.9487H235.549V87.4402H247.989V74.9487Z" fill="black"/>
<path d="M247.989 62.4573H235.549V74.9487H247.989V62.4573Z" fill="black"/>
<path d="M247.989 50.0681H235.549V62.5596H247.989V50.0681Z" fill="black"/>
<path d="M247.989 37.5767H235.549V50.0681H247.989V37.5767Z" fill="black"/>
<path d="M247.989 25.0852H235.549V37.5767H247.989V25.0852Z" fill="black"/>
<path d="M247.989 12.5938H235.549V25.0852H247.989V12.5938Z" fill="black"/>
<path d="M588.823 124.915H576.383V137.406H588.823V124.915Z" fill="black"/>
<path d="M588.823 112.423H576.383V124.915H588.823V112.423Z" fill="black"/>
<path d="M588.823 99.9316H576.383V112.423H588.823V99.9316Z" fill="black"/>
<path d="M588.823 74.9487H576.383V87.4402H588.823V74.9487Z" fill="black"/>
<path d="M588.823 62.4573H576.383V74.9487H588.823V62.4573Z" fill="black"/>
<path d="M588.823 50.0681H576.383V62.5596H588.823V50.0681Z" fill="black"/>
<path d="M588.823 37.5767H576.383V50.0681H588.823V37.5767Z" fill="black"/>
<path d="M588.823 25.0852H576.383V37.5767H588.823V25.0852Z" fill="black"/>
<path d="M576.382 124.915H563.941V137.406H576.382V124.915Z" fill="black"/>
<path d="M576.382 112.423H563.941V124.915H576.382V112.423Z" fill="black"/>
<path d="M576.382 99.9316H563.941V112.423H576.382V99.9316Z" fill="black"/>
<path d="M576.382 87.4402H563.941V99.9317H576.382V87.4402Z" fill="black"/>
<path d="M576.382 74.9487H563.941V87.4402H576.382V74.9487Z" fill="black"/>
<path d="M576.382 62.4573H563.941V74.9487H576.382V62.4573Z" fill="black"/>
<path d="M576.382 50.0681H563.941V62.5596H576.382V50.0681Z" fill="black"/>
<path d="M576.382 37.5767H563.941V50.0681H576.382V37.5767Z" fill="black"/>
<path d="M576.382 25.0852H563.941V37.5767H576.382V25.0852Z" fill="black"/>
<path d="M576.382 12.5938H563.941V25.0852H576.382V12.5938Z" fill="black"/>
<path d="M563.942 87.4402H551.502V99.9317H563.942V87.4402Z" fill="black"/>
<path d="M563.942 74.9487H551.502V87.4402H563.942V74.9487Z" fill="black"/>
<path d="M563.942 62.4573H551.502V74.9487H563.942V62.4573Z" fill="black"/>
<path d="M563.942 25.0852H551.502V37.5767H563.942V25.0852Z" fill="black"/>
<path d="M563.942 12.5938H551.502V25.0852H563.942V12.5938Z" fill="black"/>
<path d="M551.503 74.9487H539.062V87.4402H551.503V74.9487Z" fill="black"/>
<path d="M551.503 62.4573H539.062V74.9487H551.503V62.4573Z" fill="black"/>
<path d="M551.503 25.0852H539.062V37.5767H551.503V25.0852Z" fill="black"/>
<path d="M551.503 12.5938H539.062V25.0852H551.503V12.5938Z" fill="black"/>
<path d="M539.061 74.9487H526.621V87.4402H539.061V74.9487Z" fill="black"/>
<path d="M539.061 62.4573H526.621V74.9487H539.061V62.4573Z" fill="black"/>
<path d="M539.061 25.0852H526.621V37.5767H539.061V25.0852Z" fill="black"/>
<path d="M539.061 12.5938H526.621V25.0852H539.061V12.5938Z" fill="black"/>
<path d="M526.622 74.9487H514.182V87.4402H526.622V74.9487Z" fill="black"/>
<path d="M526.622 62.4573H514.182V74.9487H526.622V62.4573Z" fill="black"/>
<path d="M526.622 25.0852H514.182V37.5767H526.622V25.0852Z" fill="black"/>
<path d="M526.622 12.5938H514.182V25.0852H526.622V12.5938Z" fill="black"/>
<path d="M514.181 124.915H501.74V137.406H514.181V124.915Z" fill="black"/>
<path d="M514.181 112.423H501.74V124.915H514.181V112.423Z" fill="black"/>
<path d="M514.181 99.9316H501.74V112.423H514.181V99.9316Z" fill="black"/>
<path d="M514.181 87.4402H501.74V99.9317H514.181V87.4402Z" fill="black"/>
<path d="M514.181 74.9487H501.74V87.4402H514.181V74.9487Z" fill="black"/>
<path d="M514.181 62.4573H501.74V74.9487H514.181V62.4573Z" fill="black"/>
<path d="M514.181 50.0681H501.74V62.5596H514.181V50.0681Z" fill="black"/>
<path d="M514.181 37.5767H501.74V50.0681H514.181V37.5767Z" fill="black"/>
<path d="M514.181 25.0852H501.74V37.5767H514.181V25.0852Z" fill="black"/>
<path d="M514.181 12.5938H501.74V25.0852H514.181V12.5938Z" fill="black"/>
<path d="M501.741 124.915H489.301V137.406H501.741V124.915Z" fill="black"/>
<path d="M501.741 112.423H489.301V124.915H501.741V112.423Z" fill="black"/>
<path d="M501.741 99.9316H489.301V112.423H501.741V99.9316Z" fill="black"/>
<path d="M501.741 87.4402H489.301V99.9317H501.741V87.4402Z" fill="black"/>
<path d="M501.741 74.9487H489.301V87.4402H501.741V74.9487Z" fill="black"/>
<path d="M501.741 62.4573H489.301V74.9487H501.741V62.4573Z" fill="black"/>
<path d="M501.741 50.0681H489.301V62.5596H501.741V50.0681Z" fill="black"/>
<path d="M501.741 37.5767H489.301V50.0681H501.741V37.5767Z" fill="black"/>
<path d="M501.741 25.0852H489.301V37.5767H501.741V25.0852Z" fill="black"/>
<path d="M501.741 12.5938H489.301V25.0852H501.741V12.5938Z" fill="black"/>
<path d="M467.339 112.423H454.898V124.915H467.339V112.423Z" fill="black"/>
<path d="M467.339 99.9316H454.898V112.423H467.339V99.9316Z" fill="black"/>
<path d="M467.339 87.4402H454.898V99.9317H467.339V87.4402Z" fill="black"/>
<path d="M467.339 74.9487H454.898V87.4402H467.339V74.9487Z" fill="black"/>
<path d="M467.339 62.4573H454.898V74.9487H467.339V62.4573Z" fill="black"/>
<path d="M467.339 50.0681H454.898V62.5596H467.339V50.0681Z" fill="black"/>
<path d="M467.339 37.5767H454.898V50.0681H467.339V37.5767Z" fill="black"/>
<path d="M467.339 25.0852H454.898V37.5767H467.339V25.0852Z" fill="black"/>
<path d="M454.899 124.915H442.459V137.406H454.899V124.915Z" fill="black"/>
<path d="M454.899 112.423H442.459V124.915H454.899V112.423Z" fill="black"/>
<path d="M454.899 99.9316H442.459V112.423H454.899V99.9316Z" fill="black"/>
<path d="M454.899 87.4402H442.459V99.9317H454.899V87.4402Z" fill="black"/>
<path d="M454.899 74.9487H442.459V87.4402H454.899V74.9487Z" fill="black"/>
<path d="M454.899 62.4573H442.459V74.9487H454.899V62.4573Z" fill="black"/>
<path d="M454.899 50.0681H442.459V62.5596H454.899V50.0681Z" fill="black"/>
<path d="M454.899 37.5767H442.459V50.0681H454.899V37.5767Z" fill="black"/>
<path d="M454.899 25.0852H442.459V37.5767H454.899V25.0852Z" fill="black"/>
<path d="M454.899 12.5938H442.459V25.0852H454.899V12.5938Z" fill="black"/>
<path d="M442.458 124.915H430.018V137.406H442.458V124.915Z" fill="black"/>
<path d="M442.458 112.423H430.018V124.915H442.458V112.423Z" fill="black"/>
<path d="M442.458 25.0852H430.018V37.5767H442.458V25.0852Z" fill="black"/>
<path d="M442.458 12.5938H430.018V25.0852H442.458V12.5938Z" fill="black"/>
<path d="M430.12 124.915H417.68V137.406H430.12V124.915Z" fill="black"/>
<path d="M430.12 112.423H417.68V124.915H430.12V112.423Z" fill="black"/>
<path d="M430.12 25.0852H417.68V37.5767H430.12V25.0852Z" fill="black"/>
<path d="M430.12 12.5938H417.68V25.0852H430.12V12.5938Z" fill="black"/>
<path d="M417.68 124.915H405.24V137.406H417.68V124.915Z" fill="black"/>
<path d="M417.68 112.423H405.24V124.915H417.68V112.423Z" fill="black"/>
<path d="M417.68 25.0852H405.24V37.5767H417.68V25.0852Z" fill="black"/>
<path d="M417.68 12.5938H405.24V25.0852H417.68V12.5938Z" fill="black"/>
<path d="M405.239 124.915H392.799V137.406H405.239V124.915Z" fill="black"/>
<path d="M405.239 112.423H392.799V124.915H405.239V112.423Z" fill="black"/>
<path d="M405.239 25.0852H392.799V37.5767H405.239V25.0852Z" fill="black"/>
<path d="M405.239 12.5938H392.799V25.0852H405.239V12.5938Z" fill="black"/>
<path d="M392.8 124.915H380.359V137.406H392.8V124.915Z" fill="black"/>
<path d="M392.8 112.423H380.359V124.915H392.8V112.423Z" fill="black"/>
<path d="M392.8 99.9316H380.359V112.423H392.8V99.9316Z" fill="black"/>
<path d="M392.8 87.4402H380.359V99.9317H392.8V87.4402Z" fill="black"/>
<path d="M392.8 74.9487H380.359V87.4402H392.8V74.9487Z" fill="black"/>
<path d="M392.8 62.4573H380.359V74.9487H392.8V62.4573Z" fill="black"/>
<path d="M392.8 50.0681H380.359V62.5596H392.8V50.0681Z" fill="black"/>
<path d="M392.8 37.5767H380.359V50.0681H392.8V37.5767Z" fill="black"/>
<path d="M392.8 25.0852H380.359V37.5767H392.8V25.0852Z" fill="black"/>
<path d="M392.8 12.5938H380.359V25.0852H392.8V12.5938Z" fill="black"/>
<path d="M380.358 124.915H367.918V137.406H380.358V124.915Z" fill="black"/>
<path d="M380.358 112.423H367.918V124.915H380.358V112.423Z" fill="black"/>
<path d="M380.358 99.9316H367.918V112.423H380.358V99.9316Z" fill="black"/>
<path d="M380.358 87.4402H367.918V99.9317H380.358V87.4402Z" fill="black"/>
<path d="M380.358 74.9487H367.918V87.4402H380.358V74.9487Z" fill="black"/>
<path d="M380.358 62.4573H367.918V74.9487H380.358V62.4573Z" fill="black"/>
<path d="M380.358 50.0681H367.918V62.5596H380.358V50.0681Z" fill="black"/>
<path d="M380.358 37.5767H367.918V50.0681H380.358V37.5767Z" fill="black"/>
<path d="M380.358 25.0852H367.918V37.5767H380.358V25.0852Z" fill="black"/>
<path d="M380.358 12.5938H367.918V25.0852H380.358V12.5938Z" fill="black"/>
<path d="M367.919 124.915H355.479V137.406H367.919V124.915Z" fill="black"/>
<path d="M367.919 112.423H355.479V124.915H367.919V112.423Z" fill="black"/>
<path d="M367.919 25.0852H355.479V37.5767H367.919V25.0852Z" fill="black"/>
<path d="M367.919 12.5938H355.479V25.0852H367.919V12.5938Z" fill="black"/>
<path d="M194.495 138.43H182.973V150H194.495V138.43Z" fill="#F57D6A"/>
<path d="M205.915 126.962H194.393V138.532H205.915V126.962Z" fill="#F57D6A"/>
<path d="M217.439 69.2151H205.916V80.785H217.439V69.2151Z" fill="#F57D6A"/>
<path d="M205.915 80.7849H194.393V92.3549H205.915V80.7849Z" fill="#F57D6A"/>
<path d="M205.915 57.645H194.393V69.215H205.915V57.645Z" fill="#F57D6A"/>
<path d="M205.915 115.393H194.393V126.963H205.915V115.393Z" fill="#F57D6A"/>
<path d="M205.915 103.823H194.393V115.392H205.915V103.823Z" fill="#F57D6A"/>
<path d="M205.915 92.2524H194.393V103.822H205.915V92.2524Z" fill="#F57D6A"/>
<path d="M205.915 46.1775H194.393V57.7475H205.915V46.1775Z" fill="#F57D6A"/>
<path d="M205.915 34.6074H194.393V46.1774H205.915V34.6074Z" fill="#F57D6A"/>
<path d="M205.915 23.0376H194.393V34.6076H205.915V23.0376Z" fill="#F57D6A"/>
<path d="M205.915 11.5701H194.393V23.14H205.915V11.5701Z" fill="#F57D6A"/>
<path d="M194.495 0H182.973V11.57H194.495V0Z" fill="#F57D6A"/>
<path d="M57.753 138.43H46.2305V150H57.753V138.43Z" fill="#F57D6A"/>
<path d="M57.753 0H46.2305V11.57H57.753V0Z" fill="#F57D6A"/>
<path d="M46.3331 126.962H34.8105V138.532H46.3331V126.962Z" fill="#F57D6A"/>
<path d="M46.3331 115.393H34.8105V126.963H46.3331V115.393Z" fill="#F57D6A"/>
<path d="M46.3331 103.823H34.8105V115.392H46.3331V103.823Z" fill="#F57D6A"/>
<path d="M46.3331 92.2524H34.8105V103.822H46.3331V92.2524Z" fill="#F57D6A"/>
<path d="M46.3331 46.1775H34.8105V57.7475H46.3331V46.1775Z" fill="#F57D6A"/>
<path d="M46.3331 34.6074H34.8105V46.1774H46.3331V34.6074Z" fill="#F57D6A"/>
<path d="M46.3331 23.0376H34.8105V34.6076H46.3331V23.0376Z" fill="#F57D6A"/>
<path d="M46.3331 11.5701H34.8105V23.14H46.3331V11.5701Z" fill="#F57D6A"/>
<path d="M46.3331 80.7849H34.8105V92.3549H46.3331V80.7849Z" fill="#F57D6A"/>
<path d="M46.3331 57.645H34.8105V69.215H46.3331V57.645Z" fill="#F57D6A"/>
<path d="M34.8096 69.2151H23.2871V80.785H34.8096V69.2151Z" fill="#F57D6A"/>
</svg>
